<mxfile host="app.diagrams.net" modified="2021-03-04T21:28:46.242Z" agent="5.0 (Windows NT 10.0; Win64; x64) AppleWebKit/537.36 (KHTML, like Gecko) Chrome/87.0.4280.141 Safari/537.36" etag="DJSIXOxr28-QXsk-RWfq" version="14.4.4" type="github">
  <diagram id="3228e29e-7158-1315-38df-8450db1d8a1d" name="Page-1">
    <mxGraphModel dx="1701" dy="1049" grid="1" gridSize="10" guides="1" tooltips="1" connect="1" arrows="1" fold="1" page="1" pageScale="1" pageWidth="1169" pageHeight="827" background="#ffffff" math="0" shadow="0">
      <root>
        <mxCell id="0" />
        <mxCell id="1" parent="0" />
        <mxCell id="21531" value="" style="ellipse;fillColor=#F08705;opacity=60;strokeColor=none;html=1;fontColor=#FFFFFF;" parent="1" vertex="1">
          <mxGeometry x="339.5" y="308.5" width="500" height="500" as="geometry" />
        </mxCell>
        <mxCell id="21532" value="" style="ellipse;fillColor=#12AAB5;opacity=60;strokeColor=none;html=1;fontColor=#FFFFFF;" parent="1" vertex="1">
          <mxGeometry x="179.5" y="18.5" width="500" height="500" as="geometry" />
        </mxCell>
        <mxCell id="21533" value="" style="ellipse;fillColor=#e85642;opacity=60;strokeColor=none;html=1;fontColor=#FFFFFF;" parent="1" vertex="1">
          <mxGeometry x="489.5" y="18.5" width="500" height="500" as="geometry" />
        </mxCell>
        <mxCell id="21534" value="Invention" style="text;fontSize=24;align=center;verticalAlign=middle;html=1;fontColor=#FFFFFF;" parent="1" vertex="1">
          <mxGeometry x="299.5" y="228.5" width="190" height="70" as="geometry" />
        </mxCell>
        <mxCell id="21535" value="Revolution" style="text;fontSize=24;align=center;verticalAlign=middle;html=1;fontColor=#FFFFFF;" parent="1" vertex="1">
          <mxGeometry x="699.5" y="228.5" width="190" height="70" as="geometry" />
        </mxCell>
        <mxCell id="21536" value="Tradition" style="text;fontSize=24;align=center;verticalAlign=middle;html=1;fontColor=#FFFFFF;" parent="1" vertex="1">
          <mxGeometry x="499.5" y="558.5" width="190" height="70" as="geometry" />
        </mxCell>
        <mxCell id="21537" value="Military" style="text;align=center;html=1;fontColor=#FFFFFF;fontSize=16;" parent="1" vertex="1">
          <mxGeometry x="569.5" y="198.5" width="40" height="40" as="geometry" />
        </mxCell>
        <mxCell id="21538" value="Conflict" style="text;align=center;html=1;fontColor=#FFFFFF;fontSize=16;" parent="1" vertex="1">
          <mxGeometry x="449.5" y="418.5" width="40" height="40" as="geometry" />
        </mxCell>
        <mxCell id="21539" value="hh" style="text;align=center;html=1;fontColor=#FFFFFF;fontSize=16;" parent="1" vertex="1">
          <mxGeometry x="699.5" y="418.5" width="40" height="40" as="geometry" />
        </mxCell>
        <mxCell id="21540" value="Balance" style="text;align=center;html=1;fontColor=#FFFFFF;fontSize=16;" parent="1" vertex="1">
          <mxGeometry x="569.5" y="348.5" width="40" height="40" as="geometry" />
        </mxCell>
      </root>
    </mxGraphModel>
  </diagram>
</mxfile>
